<svg xmlns="http://www.w3.org/2000/svg" viewBox="0 0 236.8 236.8" width="236.8" height="236.8"><metadata><rdf:RDF xmlns:rdf="http://www.w3.org/1999/02/22-rdf-syntax-ns#" xmlns:dc="http://purl.org/dc/elements/1.1/"><rdf:Description><dc:creator>RealFaviconGenerator</dc:creator><dc:source>https://realfavicongenerator.net</dc:source></rdf:Description></rdf:RDF></metadata><defs><style>.orange{fill:#c4874a}</style></defs><circle cx="118.4" cy="118.4" r="116.9" style="fill:#1a2744;stroke:#c4874a;stroke-width:3;stroke-miterlimit:10"></circle><path d="M102.48 200.74c5.9-3.69 14.15-3.93 14.24-3.98-.03-.05-.2 7.55-6.54 11.82-6.45 4.32-15.78 2.62-15.66 2.58-.03-.05 1.97-6.7 7.96-10.42M98.3 190.14c3.54 5.44 11.9 6.51 11.9 6.42.07 0-.08-7.29-3.97-12.23-3.86-4.88-9.57-6.26-9.6-6.32.07 0-1.87 6.77 1.67 12.13M75.43 204.65c-.1.03 7.89 3.27 14.42.32 6.42-2.92 8.07-10.02 8.09-9.96-.8.03-7.39-1.17-13.39 1.24-6.07 2.44-9.14 8.34-9.12 8.39ZM82.85 185.52c2.16 5.78 9.37 8.25 9.38 8.17.06 0 1.38-6.85-1.14-12.19-2.5-5.29-7.44-7.68-7.45-7.74.06 0-2.95 6.07-.78 11.76ZM59.39 195.03c-.9.01 6.59 4.56 13.02 2.95 6.34-1.6 9.17-7.99 9.18-7.93-.7.01-6.43-2.45-12.34-1.28-5.98 1.18-9.87 6.21-9.86 6.26M69.66 178.26c.95 5.92 7.03 9.58 7.04 9.5.5.01 2.55-6.21 1.24-11.75-1.3-5.48-5.46-8.74-5.46-8.81.5.02-3.78 5.22-2.81 11.06ZM46.37 182.84c-.08 0 5.3 5.61 11.47 5.29 6.09-.33 9.84-5.86 9.84-5.8-.06 0-5.46-3.55-11.13-3.58-5.73-.02-10.19 4.04-10.19 4.1ZM58.73 168.77c-.1 5.87 4.85 10.53 4.87 10.45.4.02 3.45-5.42 3.2-10.98-.26-5.5-3.62-9.49-3.61-9.55.4.02-4.38 4.29-4.45 10.09ZM36.3 168.64c-.07-.01 4.02 6.42 9.8 7.3 5.71.86 10.12-3.71 10.11-3.66-.06 0-4.47-4.47-9.76-5.61-5.34-1.14-10.15 1.92-10.16 1.97ZM50.09 157.45c-1.02 5.67 2.82 11.11 2.85 11.04.4.02 4.12-4.53 4.78-9.96.64-5.37-1.9-9.94-1.88-10 .3.03-4.76 3.31-5.74 8.91ZM29.14 152.96c-.06-.03 2.76 7 8.01 8.96 5.19 1.94 10.04-1.62 10.02-1.57-.05-.01-3.47-5.21-8.24-7.35-4.82-2.15-9.78-.1-9.8-.05ZM43.75 144.74c-1.81 5.34.93 11.37.97 11.31.3.03 4.57-3.58 6.01-8.74 1.42-5.11-.29-10.11-.27-10.16.2.03-4.94 2.32-6.71 7.6ZM24.85 136.32c-.05-.03 1.52 7.35 6.12 10.27 4.55 2.88 9.63.37 9.61.42-.04-.02-2.46-5.76-6.59-8.77-4.18-3.03-9.12-1.96-9.14-1.91ZM39.72 131.06c-2.48 4.9-.83 11.32-.79 11.26.2.03 4.81-2.6 6.93-7.39 2.09-4.74 1.22-10.02 1.25-10.07.2.03-4.96 1.35-7.4 6.2ZM23.38 119.25s.29 7.47 4.14 11.19c3.81 3.68 8.93 2.19 8.9 2.23-.04-.03-1.43-6.13-4.83-9.86-3.43-3.75-8.19-3.61-8.22-3.57ZM38.01 116.82c-3.06 4.37-2.48 10.98-2.43 10.94.2.03 4.88-1.64 7.57-5.97 2.65-4.29 2.65-9.69 2.69-9.73.1.03-4.82.43-7.83 4.76M24.68 102.26s-.93 7.37 2.09 11.72c2.97 4.3 7.97 3.79 7.94 3.83-.03-.03-.4-6.3-2.97-10.58-2.59-4.3-7.02-5-7.06-4.97M38.64 102.46c-3.54 3.77-4.03 10.38-3.97 10.35 0 .03 4.79-.71 7.96-4.51 3.13-3.77 4-9.14 4.05-9.17 0 .03-4.54-.41-8.03 3.33ZM28.7 85.84c-.03-.05-2.13 7.05-.03 11.84 2.06 4.74 6.78 5.13 6.75 5.16-.03-.3.64-6.29-1.01-10.93-1.67-4.67-5.66-6.09-5.7-6.07ZM41.63 88.41c-3.95 3.11-5.49 9.53-5.43 9.51 0 .03 4.55.14 8.13-3.07 3.53-3.19 5.29-8.36 5.35-8.38 0 .03-4.15-1.16-8.04 1.94ZM35.42 70.49c-.03-.06-3.31 6.51-2.21 11.55 1.07 4.99 5.4 6.18 5.35 6.2-.02-.04 1.69-6.08 1.02-10.89-.69-4.84-4.12-6.87-4.16-6.86M46.98 75.09c-4.29 2.41-6.88 8.45-6.82 8.44 0 .03 4.2.9 8.11-1.68 3.86-2.57 6.54-7.38 6.6-7.39 0 .03-3.66-1.78-7.89.62ZM44.78 56.68c-.02-.06-4.47 5.75-4.42 10.84.03 5.02 3.84 6.9 3.79 6.9-.02-.04 2.74-5.68 3.12-10.45.36-4.81-2.44-7.29-2.49-7.29M54.7 62.94c-4.58 1.67-8.21 7.14-8.14 7.15 0 .03 3.73 1.55 7.93-.36 4.14-1.91 7.75-6.19 7.81-6.19 0 .03-3.09-2.28-7.6-.6M56.75 44.91c-.02-.06-5.62 4.79-6.67 9.69-1.06 4.84 2.14 7.26 2.1 7.26-.02-.04 3.8-5.08 5.27-9.6 1.45-4.56-.64-7.35-.69-7.35ZM64.81 52.39c-4.82.91-9.49 5.61-9.42 5.63 0 .03 3.19 2.07 7.63.86 4.38-1.23 8.94-4.8 9-4.78 0 .03-2.46-2.64-7.21-1.71M71.29 35.61c-.02-.06-6.76 3.62-8.93 8.12-2.19 4.44.33 7.25.28 7.24-.01-.04 4.87-4.28 7.46-8.33 2.58-4.08 1.24-7.02 1.19-7.03M77.32 43.9c-5.04.11-10.73 3.88-10.66 3.91 0 .03 2.57 2.46 7.22 1.97 4.59-.52 10.11-3.21 10.18-3.18 0 .03-1.77-2.85-6.74-2.7M88.35 29.27c-.01-.06-7.87 2.25-11.2 6.13-3.34 3.81-1.56 6.86-1.61 6.84-.01-.04 5.94-3.29 9.68-6.64 3.73-3.39 3.18-6.3 3.13-6.33M92.24 37.9c-5.22-.7-11.94 1.93-11.87 1.98 0 .03 1.9 2.7 6.74 2.95 4.77.21 11.27-1.42 11.34-1.37 0 .03-1.06-2.91-6.22-3.56ZM97.83 30.07c-4.26 1.12-7.03 5.44-7.01 5.43.3.02 3.23.48 7.16-.75 3.91-1.28 7.6-3.49 7.63-3.48.3.03-3.53-2.33-7.78-1.19ZM142.28 211.16c.12.05-9.21 1.74-15.66-2.58-6.33-4.27-6.5-11.87-6.54-11.82.1.04 8.34.29 14.24 3.98 5.99 3.72 7.99 10.37 7.96 10.42M140.16 178.01c-.3.06-5.74 1.44-9.6 6.32-3.89 4.94-4.04 12.22-3.97 12.23 0 .09 8.36-.98 11.9-6.42 3.54-5.35 1.6-12.13 1.67-12.13M152.24 196.26c-5.99-2.41-13.3-1.22-13.39-1.24.02-.05 1.67 7.04 8.09 9.96 6.53 2.95 14.52-.3 14.42-.32.02-.05-3.05-5.96-9.12-8.39ZM153.16 173.76c-.1.06-4.96 2.45-7.45 7.74-2.52 5.35-1.2 12.2-1.14 12.19 0 .08 7.21-2.39 9.38-8.17 2.17-5.7-.84-11.76-.78-11.76ZM167.55 188.77c-5.91-1.16-12.27 1.3-12.34 1.28.01-.06 2.84 6.33 9.18 7.93 6.43 1.61 13.11-2.94 13.02-2.95 0-.06-3.88-5.08-9.86-6.26M164.33 167.2c0 .07-4.16 3.32-5.46 8.81-1.31 5.55 1.18 11.76 1.24 11.75.1.08 6.08-3.58 7.04-9.5.97-5.84-2.86-11.04-2.81-11.06ZM180.24 178.74c-5.67.03-11.06 3.58-11.13 3.58 0-.06 3.75 5.48 9.84 5.8 6.18.32 11.55-5.29 11.47-5.29 0-.05-4.46-4.12-10.19-4.1ZM173.61 158.68c0 .06-3.35 4.05-3.61 9.55-.26 5.56 3.15 11 3.2 10.98.2.08 4.97-4.58 4.87-10.45-.08-5.79-4.5-10.06-4.45-10.09ZM190.34 166.67c-5.29 1.14-9.7 5.6-9.76 5.61 0-.05 4.41 4.52 10.11 3.66 5.78-.87 9.87-7.31 9.8-7.3 0-.05-4.82-3.11-10.16-1.97ZM180.96 148.54c.2.06-2.53 4.63-1.88 10 .66 5.43 4.74 9.98 4.78 9.96.3.07 3.87-5.37 2.85-11.04-.99-5.6-5.78-8.88-5.74-8.91ZM197.85 153.01c-4.77 2.14-8.19 7.34-8.24 7.35-.01-.05 4.84 3.5 10.02 1.57 5.25-1.96 8.08-8.99 8.01-8.96-.02-.05-4.98-2.1-9.8.05ZM186.33 137.15c.3.05-1.69 5.05-.27 10.16 1.44 5.16 5.98 8.77 6.01 8.74.4.06 2.78-5.97.97-11.31-1.77-5.28-6.74-7.56-6.71-7.6ZM202.8 138.23c-4.14 3.01-6.55 8.75-6.59 8.77-.02-.05 5.06 2.47 9.61-.42 4.61-2.92 6.18-10.3 6.12-10.27-.02-.04-4.96-1.11-9.14 1.91ZM189.68 124.86s-.83 5.33 1.25 10.07c2.12 4.79 6.91 7.42 6.93 7.39.4.05 1.7-6.37-.79-11.26-2.44-4.85-7.42-6.16-7.4-6.2ZM205.2 122.82c-3.4 3.73-4.8 9.83-4.83 9.86-.03-.04 5.1 1.45 8.91-2.23 3.86-3.72 4.19-11.23 4.14-11.19-.03-.04-4.79-.18-8.22 3.57ZM190.96 112.07s.04 5.44 2.69 9.73c2.69 4.33 7.55 6 7.57 5.97.5.04.63-6.57-2.43-10.94-3.01-4.33-7.84-4.72-7.83-4.76M205.06 107.22c-2.56 4.28-2.94 10.55-2.97 10.58-.03-.03 4.97.48 7.94-3.83 3.01-4.35 2.13-11.77 2.09-11.72-.03-.03-4.47.66-7.06 4.97M190.12 99.14s.92 5.4 4.05 9.17c3.17 3.8 7.95 4.55 7.96 4.51.5.03-.43-6.58-3.97-10.35-3.49-3.74-8.04-3.29-8.03-3.33ZM202.39 91.91c-1.65 4.64-.99 10.9-1.01 10.93-.04-.03 4.69-.42 6.75-5.16 2.09-4.8 0-11.9-.03-11.84-.04-.02-4.02 1.4-5.7 6.07ZM187.12 86.47c.5.02 1.82 5.19 5.35 8.38 3.58 3.21 8.12 3.1 8.13 3.07.6.02-1.48-6.4-5.43-9.51-3.89-3.09-8.05-1.9-8.04-1.94ZM197.21 77.34c-.67 4.81 1.04 10.85 1.02 10.89-.04-.02 4.28-1.21 5.35-6.2 1.1-5.04-2.18-11.61-2.21-11.55-.04-.01-3.48 2.01-4.16 6.86M181.93 74.47c.06 0 2.74 4.82 6.6 7.39 3.91 2.58 8.11 1.71 8.11 1.68.06 0-2.53-6.03-6.82-8.44-4.23-2.4-7.89-.59-7.89-.62ZM189.52 63.97c.37 4.77 3.13 10.41 3.11 10.45-.04 0 3.77-1.88 3.79-6.9.05-5.08-4.4-10.89-4.42-10.84-.05 0-2.84 2.48-2.49 7.29ZM174.49 63.54c.06 0 3.67 4.28 7.81 6.19 4.2 1.91 7.94.39 7.93.36.07 0-3.56-5.47-8.14-7.15-4.51-1.68-7.6.63-7.6.6M179.35 52.26c1.46 4.52 5.28 9.56 5.27 9.6-.05 0 3.16-2.42 2.1-7.26-1.04-4.9-6.65-9.75-6.67-9.69-.05 0-2.14 2.8-.69 7.35ZM164.77 54.11c.07-.02 4.62 3.56 9 4.78 4.44 1.21 7.63-.83 7.63-.86.07-.02-4.6-4.73-9.42-5.63-4.76-.92-7.21 1.74-7.21 1.71M166.69 42.65c2.59 4.05 7.47 8.29 7.46 8.33-.5.01 2.47-2.8.28-7.24-2.17-4.5-8.92-8.19-8.93-8.12-.5.02-1.39 2.95 1.19 7.03M152.73 46.6c.07-.03 5.59 2.66 10.18 3.18 4.65.49 7.23-1.94 7.22-1.97.07-.03-5.62-3.8-10.66-3.91-4.97-.15-6.73 2.73-6.74 2.7M151.57 35.6c3.74 3.35 9.69 6.6 9.68 6.64-.5.02 1.73-3.03-1.61-6.84-3.33-3.88-11.19-6.19-11.2-6.13-.5.03-.59 2.94 3.13 6.33M138.33 41.46c.07-.05 6.57 1.58 11.34 1.37 4.84-.25 6.75-2.93 6.74-2.95.07-.05-6.64-2.68-11.87-1.98-5.16.65-6.21 3.59-6.22 3.56ZM131.19 31.27s3.72 2.2 7.63 3.48c3.92 1.23 7.12.77 7.16.75.02.02-2.75-4.31-7.01-5.43-4.25-1.14-7.81 1.23-7.78 1.19ZM80.49 106.87c1.13-4.65 1.37-6.54 1.37-7.31 0-2.29-1.45-4.94-4.31-7.9l-6.33-5.97 9.23-10.1 7.13 7.13c4.87 4.87 7.34 9.46 7.34 13.65 0 2.34-.49 5.6-1.5 9.97l-2.15 8.45-14.66 8.8 3.89-16.71ZM105.94 155.35c-.22-2.1-.33-3.95-.33-5.51 0-6.9 1.19-13.9 3.53-20.8 2.31-6.79 5.97-14.54 10.88-23.04-.06-6.69-2.56-11.72-7.61-15.39l-5.02-3.64 8.82-11.22 4.15 3.54c2.35 2.06 4.13 4.5 5.31 7.25.96 2.25 1.52 5.34 1.7 9.39 8.82-11.63 17.4-17.53 25.51-17.53 5.35 0 9.67 3.12 12.85 9.26 3.06 5.93 4.62 13.93 4.62 23.76 0 4.68-.68 10.68-2.02 17.83s-2.78 12.79-4.26 16.75l-.12.33-12.74 7.53h-24.83l5.31-11.91h21.52c3.26-11.55 4.91-22.53 4.91-32.66 0-5.98-.86-10.75-2.56-14.17-1.61-3.24-3.79-4.81-6.68-4.81-5.5 0-11.75 5.55-18.56 16.48-6.91 11.09-10.41 22.95-10.41 35.26 0 1.76.11 3.68.32 5.71l.7.63-14.18 8.51-.16-1.56Z" class="orange"></path><circle cx="118.4" cy="118.4" r="102.45" style="fill:none;stroke:#c4874a;stroke-width:5;stroke-miterlimit:10"></circle><circle cx="118.4" cy="118.4" r="112.06" style="fill:none;stroke:#c4874a;stroke-width:2;stroke-miterlimit:10"></circle><style>@media (prefers-color-scheme: light) { :root { filter: none; } }
@media (prefers-color-scheme: dark) { :root { filter: none; } }
</style></svg>