<?xml version="1.0" encoding="UTF-8"?><svg id="b" xmlns="http://www.w3.org/2000/svg" xmlns:xlink="http://www.w3.org/1999/xlink" viewBox="0 0 68.77 94.53"><defs><style>.f{fill:url(#e);}.g{fill:url(#d);}.h{fill:url(#c);}.i{fill:#5e60f4;}.j{fill:#f9fbfc;}</style><linearGradient id="c" x1="79.24" y1="51.56" x2="3.2" y2="33.84" gradientUnits="userSpaceOnUse"><stop offset="0" stop-color="#5e60f4"/><stop offset=".31" stop-color="#605ef1"/><stop offset=".51" stop-color="#6959ea"/><stop offset=".68" stop-color="#7850dd"/><stop offset=".83" stop-color="#8d43cc"/><stop offset=".97" stop-color="#a833b5"/><stop offset="1" stop-color="#af30b0"/></linearGradient><linearGradient id="d" x1="15.39" y1="95.02" x2="15.39" y2="80" gradientUnits="userSpaceOnUse"><stop offset="0" stop-color="#8338ea"/><stop offset=".52" stop-color="#ff006c"/><stop offset="1" stop-color="#fe9c0a"/></linearGradient><linearGradient id="e" x1="35.72" y1="59.45" x2="35.72" y2="17.12" gradientUnits="userSpaceOnUse"><stop offset="0" stop-color="#8338ea"/><stop offset=".2" stop-color="#ff006c"/><stop offset="1" stop-color="#fe9c0a"/></linearGradient></defs><path class="i" d="M68.77,75.02v14.39H7.19c-1.99,0-3.79-.81-5.09-2.11-1.3-1.3-2.11-3.1-2.11-5.09,0-3.97,3.22-7.19,7.19-7.19h61.58Z"/><path class="h" d="M68.77,0v75.02H7.19c-3.98,0-7.19,3.22-7.19,7.19V7.19C0,3.22,3.22,0,7.19,0h61.58Z"/><path class="j" d="M7.19,87.62c-1.44,0-2.8-.56-3.82-1.58-1.02-1.02-1.58-2.38-1.58-3.82,0-2.98,2.42-5.4,5.4-5.4h61.58v10.8H7.19Z"/><polygon class="g" points="22.7 94.53 15.39 91.12 8.08 94.53 8.08 80.51 22.7 80.51 22.7 94.53"/><path class="f" d="M46.81,59.45l-17.75-24.47-.21-.14-13.71-17.72h9.46l17.16,23.38.28.18,14.27,18.77h-9.49ZM16.61,59.45v-9.28c0-3.12.46-5.87,1.37-8.24s2.33-4.42,4.24-6.13c1.91-1.71,4.35-3.12,7.33-4.22l1.97,5.03c-1.66.75-2.99,1.65-3.97,2.69s-1.69,2.36-2.13,3.94c-.43,1.58-.65,3.56-.65,5.92v10.3h-8.16ZM41.4,43.7l-2.71-4.85c1.78-.94,3.19-1.93,4.24-2.99,1.04-1.05,1.79-2.4,2.23-4.04.44-1.64.67-3.8.67-6.47v-8.23h8.16v7.77c0,3.26-.4,6.06-1.2,8.42-.8,2.36-2.12,4.37-3.96,6.03s-4.32,3.12-7.44,4.36Z"/></svg>